# xmcd
#
# Track frame offsets: 
#        150
#        1347
#        45368
#        65265
#        97796
#        117528
#        150108
#        189515
#        212268
#
# Disc length: 3002 seconds
#
# Revision: 0
# Processed by: cddbd v1.5.2PL0 Copyright (c) Steve Scherf et al.
# Submitted via: ExactAudioCopyFreeDBPlugin 1.0
#
DISCID=5c0bb809
DTITLE=Johnny Winter - Live Bootleg Series Volume 14 - It's Johnny's B
DTITLE=irthday (Remastered)
DYEAR=2018
DGENRE=Blues
TTITLE0=Introduction
TTITLE1=The Sun Is Shining
TTITLE2=Knock On Wood
TTITLE3=Kind Hearted Woman Blues
TTITLE4=Johnny B. Goode
TTITLE5=You're Humbuggin' Me
TTITLE6=No Time To Live
TTITLE7=Boot Hill
TTITLE8=You Must Have A Twin (Rehearsal Version - Bonus track)
EXTD=
EXTT0=
EXTT1=
EXTT2=
EXTT3=
EXTT4=
EXTT5=
EXTT6=
EXTT7=
EXTT8=
PLAYORDER=
